<?xml version="1.0" encoding="utf-8"?>
<svg viewBox="-414.126 -205.9248 886.956 871.3638" xmlns="http://www.w3.org/2000/svg">
  <path d="M 269.246 142.014 C 284.799 146.581 301.485 150.099 337.178 156.794 L 342.588 157.808 C 384.566 165.682 404.145 169.918 423.166 176.064 C 454.693 186.251 472.83 198.942 472.83 221.966 C 472.83 244.99 454.693 257.681 423.166 267.868 C 404.145 274.014 384.565 278.25 342.588 286.124 L 337.178 287.138 C 301.485 293.833 284.799 297.351 269.246 301.918 C 260.213 304.57 253.29 307.209 248.615 309.746 C 246.749 311.812 247.126 312.73 247.595 313.755 C 250.26 319.576 255.179 327.291 262.246 336.679 C 274.27 352.652 288.293 368.649 318.561 401.739 C 355.337 441.937 368.764 457.212 382.022 475.068 C 405.224 506.319 413.493 528.016 395.449 546.053 C 379.434 562.068 356.912 557.792 321.419 541.801 C 299.861 532.088 278.737 520.544 234.239 494.976 C 189.615 469.332 172.706 459.955 153.787 450.904 C 142.294 445.406 132.949 441.633 125.844 439.634 C 123.041 438.845 120.73 438.375 118.997 438.195 C 118.446 438.963 117.816 439.975 117.138 441.224 C 114.6 445.9 111.962 452.822 109.31 461.855 C 104.743 477.408 101.225 494.094 94.53 529.787 L 93.516 535.197 C 85.642 577.175 81.406 596.754 75.26 615.775 C 65.073 647.302 52.382 665.439 29.358 665.439 C 6.334 665.439 -6.357 647.302 -16.544 615.775 C -22.69 596.754 -26.926 577.174 -34.8 535.197 L -35.814 529.787 C -42.509 494.094 -46.027 477.408 -50.594 461.855 C -53.246 452.822 -55.885 445.899 -58.422 441.224 C -59.339 439.535 -60.167 438.28 -60.832 437.476 C -67.255 436.51 -87.613 446.71 -125.29 471.608 C -156.695 492.374 -168.292 499.554 -182.684 506.215 C -207.058 517.497 -227.051 519.207 -242.219 504.039 C -256.884 489.374 -256.182 469.441 -246.717 443.996 C -241.003 428.633 -234.384 415.629 -217.306 384.409 C -193.596 341.06 -184.587 319.445 -186.11 312.191 C -186.912 311.52 -188.181 310.679 -189.899 309.746 C -194.575 307.208 -201.498 304.57 -210.531 301.918 C -226.085 297.351 -242.772 293.833 -278.467 287.138 L -283.878 286.123 C -325.857 278.249 -345.438 274.013 -364.46 267.867 C -395.988 257.68 -414.126 244.989 -414.126 221.965 C -414.126 198.941 -395.988 186.249 -364.46 176.063 C -345.438 169.917 -325.858 165.681 -283.878 157.807 L -278.467 156.792 C -242.772 150.097 -226.085 146.579 -210.531 142.012 C -201.498 139.36 -194.574 136.721 -189.899 134.184 C -188.745 131.296 -189.707 129.021 -190.989 126.385 C -195.24 117.64 -202.439 106.021 -212.477 91.644 C -228.826 68.227 -245.701 46.494 -287.944 -6.488 C -332.14 -61.92 -350.884 -86.186 -368.117 -111.449 C -397.716 -154.842 -407.644 -178.259 -389.255 -196.648 C -370.866 -215.037 -347.448 -205.109 -304.056 -175.51 C -278.793 -158.278 -254.527 -139.533 -199.569 -95.715 C -146.113 -53.094 -124.38 -36.22 -100.963 -19.87 C -86.585 -9.832 -74.966 -2.633 -66.222 1.618 C -62.943 3.212 -60.223 4.312 -58.192 4.924 C -53.05 -0.353 -45.835 -19.827 -35.492 -59.146 C -26.729 -92.458 -22.527 -106.388 -16.073 -120.721 C -5.473 -144.261 8.446 -158.491 29.357 -158.491 C 50.268 -158.491 64.187 -144.261 74.787 -120.721 C 81.241 -106.388 85.443 -92.458 93.723 -60.984 C 105.799 -15.078 113.462 4.061 118.683 6.226 C 119.881 5.562 122.564 4.996 125.926 3.977 C 133.346 1.727 143.127 -2.429 155.176 -8.436 C 174.947 -18.294 192.611 -28.418 237.939 -55.286 C 285.68 -83.581 307.664 -96.012 329.994 -106.555 C 366.877 -123.969 389.683 -128.9 405.958 -112.625 C 424.217 -94.359 415.385 -72.508 390.766 -39.869 C 376.703 -21.224 362.401 -5.062 324.863 35.774 C 291.494 72.078 276.708 88.818 263.828 105.657 C 256.202 115.627 250.858 123.806 247.911 129.981 C 247.434 130.972 246.996 131.983 246.6 133.009 C 253.291 136.724 260.213 139.362 269.246 142.014 Z" transform="matrix(1, 0, 0, 1, 5.684341886080802e-14, 0)"/>
</svg>